<svg xmlns="http://www.w3.org/2000/svg" width="880.955" height="643.209" viewBox="0 0 880.955 643.209">
  <g id="Group_27" data-name="Group 27" transform="translate(-394.213 -4214.002)">
    <g id="Kontaktinfo" transform="translate(147 79)">
      <g id="Group_7" data-name="Group 7" transform="translate(55 21)">
        <path id="Path_10" data-name="Path 10" d="M1797.3,3213.5c20.7-128.233,7.54-208.695-66.992-265.046-4.073-3.08-8.6-6.267-13.348-9.376-38.833-25.453-88.86-39.6-137.27-47.342-43.906-7.023-86.492-8.683-117.53-8.683-140.542,0-180-36.167-287.635,42.943s-161.715,53.445-168.967,199.965S1055.412,3339.1,1158.5,3404.6s327.807,17.66,438.985,0S1775.391,3349.2,1797.3,3213.5Z" transform="translate(-772.735 1279.195)" fill="#fff4ee" stroke="#fff4ee" stroke-width="80"/>
        <text id="_" data-name="
" transform="translate(425 4186)" fill="#fff4ee" font-size="35" font-family="ArialMT, Arial"><tspan x="0" y="0"></tspan><tspan x="0" y="20"></tspan></text>
      </g>
    </g>
  </g>
</svg>
