<svg xmlns="http://www.w3.org/2000/svg" width="472.088" height="230.705" viewBox="0 0 472.088 230.705">
  <defs>
    <style>
      .cls-1, .cls-3 {
        fill: none;
      }

      .cls-1 {
        stroke: #246c5e;
        stroke-width: 3px;
      }

      .cls-2 {
        isolation: isolate;
      }

      .cls-3 {
        stroke-linecap: round;
        stroke-linejoin: round;
      }

      .cls-4, .cls-5 {
        stroke: none;
      }

      .cls-5 {
        fill: #246c5e;
      }
    </style>
  </defs>
  <g id="Group_28" data-name="Group 28" transform="translate(-148.667 -424.66)">
    <g id="Group_21" data-name="Group 21">
      <path id="Path_19" data-name="Path 19" class="cls-1" d="M3064.6,1701.214l.008-16.8,31.6-11.5-.067,28.3Z" transform="translate(2808.175 -1801.629) rotate(110)"/>
      <path id="Path_24" data-name="Path 24" class="cls-1" d="M-.385.231l.61,33.552,31.2-11.977L31.163,0Z" transform="translate(263.919 534.033) rotate(111)"/>
      <g id="Group_3" data-name="Group 3" class="cls-2" transform="translate(-642 232)">
        <g id="Path_1" data-name="Path 1" class="cls-3">
          <path class="cls-4" d="M827.779,423.365V192.66H969.756v37.762H865.485V423.365Z"/>
          <path class="cls-5" d="M 862.4852905273438 420.3652954101562 L 862.4852905273438 230.4216918945312 C 862.4852905273438 228.7648468017578 863.8284301757812 227.4216918945312 865.4852905273438 227.4216918945312 L 966.7556762695312 227.4216918945312 L 966.7556762695312 195.6601867675781 L 830.7793579101562 195.6601867675781 L 830.7793579101562 420.3652954101562 L 862.4852905273438 420.3652954101562 M 865.4852905273438 423.3652954101562 L 827.7793579101562 423.3652954101562 L 827.7793579101562 192.6601867675781 L 969.7556762695312 192.6601867675781 L 969.7556762695312 230.4216918945312 L 865.4852905273438 230.4216918945312 L 865.4852905273438 423.3652954101562 Z"/>
        </g>
        <g id="Path_3" data-name="Path 3" class="cls-3">
          <path class="cls-4" d="M827.779,423.365V192.66H969.756v37.762H865.485V423.365Z"/>
          <path class="cls-5" d="M 862.4852905273438 420.3652954101562 L 862.4852905273438 230.4216918945312 C 862.4852905273438 228.7648468017578 863.8284301757812 227.4216918945312 865.4852905273438 227.4216918945312 L 966.7556762695312 227.4216918945312 L 966.7556762695312 195.6601867675781 L 830.7793579101562 195.6601867675781 L 830.7793579101562 420.3652954101562 L 862.4852905273438 420.3652954101562 M 865.4852905273438 423.3652954101562 L 827.7793579101562 423.3652954101562 L 827.7793579101562 192.6601867675781 L 969.7556762695312 192.6601867675781 L 969.7556762695312 230.4216918945312 L 865.4852905273438 230.4216918945312 L 865.4852905273438 423.3652954101562 Z"/>
        </g>
        <g id="Path_4" data-name="Path 4" class="cls-3">
          <path class="cls-4" d="M827.779,423.365V192.66H969.756v37.762H865.485V423.365Z"/>
          <path class="cls-5" d="M 862.4852905273438 420.3652954101562 L 862.4852905273438 230.4216918945312 C 862.4852905273438 228.7648468017578 863.8284301757812 227.4216918945312 865.4852905273438 227.4216918945312 L 966.7556762695312 227.4216918945312 L 966.7556762695312 195.6601867675781 L 830.7793579101562 195.6601867675781 L 830.7793579101562 420.3652954101562 L 862.4852905273438 420.3652954101562 M 865.4852905273438 423.3652954101562 L 827.7793579101562 423.3652954101562 L 827.7793579101562 192.6601867675781 L 969.7556762695312 192.6601867675781 L 969.7556762695312 230.4216918945312 L 865.4852905273438 230.4216918945312 L 865.4852905273438 423.3652954101562 Z"/>
        </g>
      </g>
    </g>
    <g id="Group_22" data-name="Group 22" transform="translate(293)">
      <path id="Path_19-2" data-name="Path 19" class="cls-1" d="M3064.6,1701.214l.008-16.8,31.6-11.5-.067,28.3Z" transform="translate(2808.175 -1801.629) rotate(110)"/>
      <path id="Path_24-2" data-name="Path 24" class="cls-1" d="M-.385.231l.61,33.552,31.2-11.977L31.163,0Z" transform="translate(263.919 534.033) rotate(111)"/>
      <g id="Group_3-2" data-name="Group 3" class="cls-2" transform="translate(-642 232)">
        <g id="Path_1-2" data-name="Path 1" class="cls-3">
          <path class="cls-4" d="M827.779,423.365V192.66H969.756v37.762H865.485V423.365Z"/>
          <path class="cls-5" d="M 862.4852905273438 420.3652954101562 L 862.4852905273438 230.4216918945312 C 862.4852905273438 228.7648468017578 863.8284301757812 227.4216918945312 865.4852905273438 227.4216918945312 L 966.7556762695312 227.4216918945312 L 966.7556762695312 195.6601867675781 L 830.7793579101562 195.6601867675781 L 830.7793579101562 420.3652954101562 L 862.4852905273438 420.3652954101562 M 865.4852905273438 423.3652954101562 L 827.7793579101562 423.3652954101562 L 827.7793579101562 192.6601867675781 L 969.7556762695312 192.6601867675781 L 969.7556762695312 230.4216918945312 L 865.4852905273438 230.4216918945312 L 865.4852905273438 423.3652954101562 Z"/>
        </g>
        <g id="Path_3-2" data-name="Path 3" class="cls-3">
          <path class="cls-4" d="M827.779,423.365V192.66H969.756v37.762H865.485V423.365Z"/>
          <path class="cls-5" d="M 862.4852905273438 420.3652954101562 L 862.4852905273438 230.4216918945312 C 862.4852905273438 228.7648468017578 863.8284301757812 227.4216918945312 865.4852905273438 227.4216918945312 L 966.7556762695312 227.4216918945312 L 966.7556762695312 195.6601867675781 L 830.7793579101562 195.6601867675781 L 830.7793579101562 420.3652954101562 L 862.4852905273438 420.3652954101562 M 865.4852905273438 423.3652954101562 L 827.7793579101562 423.3652954101562 L 827.7793579101562 192.6601867675781 L 969.7556762695312 192.6601867675781 L 969.7556762695312 230.4216918945312 L 865.4852905273438 230.4216918945312 L 865.4852905273438 423.3652954101562 Z"/>
        </g>
        <g id="Path_4-2" data-name="Path 4" class="cls-3">
          <path class="cls-4" d="M827.779,423.365V192.66H969.756v37.762H865.485V423.365Z"/>
          <path class="cls-5" d="M 862.4852905273438 420.3652954101562 L 862.4852905273438 230.4216918945312 C 862.4852905273438 228.7648468017578 863.8284301757812 227.4216918945312 865.4852905273438 227.4216918945312 L 966.7556762695312 227.4216918945312 L 966.7556762695312 195.6601867675781 L 830.7793579101562 195.6601867675781 L 830.7793579101562 420.3652954101562 L 862.4852905273438 420.3652954101562 M 865.4852905273438 423.3652954101562 L 827.7793579101562 423.3652954101562 L 827.7793579101562 192.6601867675781 L 969.7556762695312 192.6601867675781 L 969.7556762695312 230.4216918945312 L 865.4852905273438 230.4216918945312 L 865.4852905273438 423.3652954101562 Z"/>
        </g>
      </g>
    </g>
    <g id="Path_8" data-name="Path 8" class="cls-3" transform="translate(-461 232)">
      <path class="cls-4" d="M827.779,423.365V192.66h37.706V423.365Z"/>
      <path class="cls-5" d="M 862.4852905273438 420.3652954101562 L 862.4852905273438 230.4216918945312 L 862.4852905273438 195.6601867675781 L 830.7793579101562 195.6601867675781 L 830.7793579101562 420.3652954101562 L 862.4852905273438 420.3652954101562 M 865.4852905273438 423.3652954101562 L 827.7793579101562 423.3652954101562 L 827.7793579101562 192.6601867675781 L 865.4852905273438 192.6601867675781 L 865.4852905273438 230.4216918945312 L 865.4852905273438 423.3652954101562 Z"/>
    </g>
  </g>
</svg>
