<svg xmlns="http://www.w3.org/2000/svg" width="471.447" height="230.705" viewBox="0 0 471.447 230.705">
  <defs>
    <style>
      .cls-1, .cls-3 {
        fill: none;
      }

      .cls-1, .cls-4 {
        stroke: #fff;
        stroke-width: 2px;
      }

      .cls-2 {
        isolation: isolate;
      }

      .cls-3, .cls-5 {
        stroke-linecap: round;
        stroke-linejoin: round;
      }

      .cls-4, .cls-5, .cls-7 {
        fill: #fff;
      }

      .cls-6, .cls-7 {
        stroke: none;
      }
    </style>
  </defs>
  <g id="Group_32" data-name="Group 32" transform="translate(-149.309 -424.66)">
    <g id="Group_23" data-name="Group 23">
      <g id="Group_21" data-name="Group 21">
        <path id="Path_19" data-name="Path 19" class="cls-1" d="M3064.6,1701.214l.008-16.8,31.6-11.5-.067,28.3Z" transform="translate(2808.175 -1801.629) rotate(110)"/>
        <path id="Path_24" data-name="Path 24" class="cls-1" d="M-.385.231l.61,33.552,31.2-11.977L31.163,0Z" transform="translate(263.919 534.033) rotate(111)"/>
        <g id="Group_3" data-name="Group 3" class="cls-2" transform="translate(-642 232)">
          <g id="Path_1" data-name="Path 1" class="cls-3">
            <path class="cls-6" d="M827.779,423.365V192.66H969.756v37.762H865.485V423.365Z"/>
            <path class="cls-7" d="M 863.4852905273438 421.3652954101562 L 863.4852905273438 230.4216918945312 C 863.4852905273438 229.317138671875 864.3807373046875 228.4216918945312 865.4852905273438 228.4216918945312 L 967.7556762695312 228.4216918945312 L 967.7556762695312 194.6601867675781 L 829.7793579101562 194.6601867675781 L 829.7793579101562 421.3652954101562 L 863.4852905273438 421.3652954101562 M 865.4852905273438 423.3652954101562 L 827.7793579101562 423.3652954101562 L 827.7793579101562 192.6601867675781 L 969.7556762695312 192.6601867675781 L 969.7556762695312 230.4216918945312 L 865.4852905273438 230.4216918945312 L 865.4852905273438 423.3652954101562 Z"/>
          </g>
          <g id="Path_3" data-name="Path 3" class="cls-3">
            <path class="cls-6" d="M827.779,423.365V192.66H969.756v37.762H865.485V423.365Z"/>
            <path class="cls-7" d="M 863.4852905273438 421.3652954101562 L 863.4852905273438 230.4216918945312 C 863.4852905273438 229.317138671875 864.3807373046875 228.4216918945312 865.4852905273438 228.4216918945312 L 967.7556762695312 228.4216918945312 L 967.7556762695312 194.6601867675781 L 829.7793579101562 194.6601867675781 L 829.7793579101562 421.3652954101562 L 863.4852905273438 421.3652954101562 M 865.4852905273438 423.3652954101562 L 827.7793579101562 423.3652954101562 L 827.7793579101562 192.6601867675781 L 969.7556762695312 192.6601867675781 L 969.7556762695312 230.4216918945312 L 865.4852905273438 230.4216918945312 L 865.4852905273438 423.3652954101562 Z"/>
          </g>
          <g id="Path_4" data-name="Path 4" class="cls-3">
            <path class="cls-6" d="M827.779,423.365V192.66H969.756v37.762H865.485V423.365Z"/>
            <path class="cls-7" d="M 863.4852905273438 421.3652954101562 L 863.4852905273438 230.4216918945312 C 863.4852905273438 229.317138671875 864.3807373046875 228.4216918945312 865.4852905273438 228.4216918945312 L 967.7556762695312 228.4216918945312 L 967.7556762695312 194.6601867675781 L 829.7793579101562 194.6601867675781 L 829.7793579101562 421.3652954101562 L 863.4852905273438 421.3652954101562 M 865.4852905273438 423.3652954101562 L 827.7793579101562 423.3652954101562 L 827.7793579101562 192.6601867675781 L 969.7556762695312 192.6601867675781 L 969.7556762695312 230.4216918945312 L 865.4852905273438 230.4216918945312 L 865.4852905273438 423.3652954101562 Z"/>
          </g>
        </g>
      </g>
      <g id="Group_22" data-name="Group 22" transform="translate(293)">
        <path id="Path_19-2" data-name="Path 19" class="cls-1" d="M3064.6,1701.214l.008-16.8,31.6-11.5-.067,28.3Z" transform="translate(2808.175 -1801.629) rotate(110)"/>
        <path id="Path_24-2" data-name="Path 24" class="cls-1" d="M-.385.231l.61,33.552,31.2-11.977L31.163,0Z" transform="translate(263.919 534.033) rotate(111)"/>
        <g id="Group_3-2" data-name="Group 3" class="cls-2" transform="translate(-642 232)">
          <g id="Path_1-2" data-name="Path 1" class="cls-3">
            <path class="cls-6" d="M827.779,423.365V192.66H969.756v37.762H865.485V423.365Z"/>
            <path class="cls-7" d="M 863.4852905273438 421.3652954101562 L 863.4852905273438 230.4216918945312 C 863.4852905273438 229.317138671875 864.3807373046875 228.4216918945312 865.4852905273438 228.4216918945312 L 967.7556762695312 228.4216918945312 L 967.7556762695312 194.6601867675781 L 829.7793579101562 194.6601867675781 L 829.7793579101562 421.3652954101562 L 863.4852905273438 421.3652954101562 M 865.4852905273438 423.3652954101562 L 827.7793579101562 423.3652954101562 L 827.7793579101562 192.6601867675781 L 969.7556762695312 192.6601867675781 L 969.7556762695312 230.4216918945312 L 865.4852905273438 230.4216918945312 L 865.4852905273438 423.3652954101562 Z"/>
          </g>
          <g id="Path_3-2" data-name="Path 3" class="cls-3">
            <path class="cls-6" d="M827.779,423.365V192.66H969.756v37.762H865.485V423.365Z"/>
            <path class="cls-7" d="M 863.4852905273438 421.3652954101562 L 863.4852905273438 230.4216918945312 C 863.4852905273438 229.317138671875 864.3807373046875 228.4216918945312 865.4852905273438 228.4216918945312 L 967.7556762695312 228.4216918945312 L 967.7556762695312 194.6601867675781 L 829.7793579101562 194.6601867675781 L 829.7793579101562 421.3652954101562 L 863.4852905273438 421.3652954101562 M 865.4852905273438 423.3652954101562 L 827.7793579101562 423.3652954101562 L 827.7793579101562 192.6601867675781 L 969.7556762695312 192.6601867675781 L 969.7556762695312 230.4216918945312 L 865.4852905273438 230.4216918945312 L 865.4852905273438 423.3652954101562 Z"/>
          </g>
          <g id="Path_4-2" data-name="Path 4" class="cls-3">
            <path class="cls-6" d="M827.779,423.365V192.66H969.756v37.762H865.485V423.365Z"/>
            <path class="cls-7" d="M 863.4852905273438 421.3652954101562 L 863.4852905273438 230.4216918945312 C 863.4852905273438 229.317138671875 864.3807373046875 228.4216918945312 865.4852905273438 228.4216918945312 L 967.7556762695312 228.4216918945312 L 967.7556762695312 194.6601867675781 L 829.7793579101562 194.6601867675781 L 829.7793579101562 421.3652954101562 L 863.4852905273438 421.3652954101562 M 865.4852905273438 423.3652954101562 L 827.7793579101562 423.3652954101562 L 827.7793579101562 192.6601867675781 L 969.7556762695312 192.6601867675781 L 969.7556762695312 230.4216918945312 L 865.4852905273438 230.4216918945312 L 865.4852905273438 423.3652954101562 Z"/>
          </g>
        </g>
      </g>
      <g id="Path_8" data-name="Path 8" class="cls-3" transform="translate(-461 232)">
        <path class="cls-6" d="M827.779,423.365V192.66h37.706V423.365Z"/>
        <path class="cls-7" d="M 863.4852905273438 421.3652954101562 L 863.4852905273438 230.4216918945312 L 863.4852905273438 194.6601867675781 L 829.7793579101562 194.6601867675781 L 829.7793579101562 421.3652954101562 L 863.4852905273438 421.3652954101562 M 865.4852905273438 423.3652954101562 L 827.7793579101562 423.3652954101562 L 827.7793579101562 192.6601867675781 L 865.4852905273438 192.6601867675781 L 865.4852905273438 230.4216918945312 L 865.4852905273438 423.3652954101562 Z"/>
      </g>
    </g>
    <g id="Group_24" data-name="Group 24">
      <g id="Group_21-2" data-name="Group 21">
        <path id="Path_19-3" data-name="Path 19" class="cls-4" d="M3064.6,1701.214l.008-16.8,31.6-11.5-.067,28.3Z" transform="translate(2808.175 -1801.629) rotate(110)"/>
        <path id="Path_24-3" data-name="Path 24" class="cls-4" d="M-.385.231l.61,33.552,31.2-11.977L31.163,0Z" transform="translate(263.919 534.033) rotate(111)"/>
        <g id="Group_3-3" data-name="Group 3" class="cls-2" transform="translate(-642 232)">
          <g id="Path_1-3" data-name="Path 1" class="cls-5">
            <path class="cls-6" d="M 864.4852905273438 422.3652954101562 L 828.7793579101562 422.3652954101562 L 828.7793579101562 193.6602020263672 L 968.7556762695312 193.6602020263672 L 968.7556762695312 229.4216918945312 L 865.4852905273438 229.4216918945312 L 864.4852905273438 229.4216918945312 L 864.4852905273438 230.4216918945312 L 864.4852905273438 422.3652954101562 Z"/>
            <path class="cls-7" d="M 863.4852905273438 421.3652954101562 L 863.4852905273438 230.4216918945312 C 863.4852905273438 229.317138671875 864.3807373046875 228.4216918945312 865.4852905273438 228.4216918945312 L 967.7556762695312 228.4216918945312 L 967.7556762695312 194.6601867675781 L 829.7793579101562 194.6601867675781 L 829.7793579101562 421.3652954101562 L 863.4852905273438 421.3652954101562 M 865.4852905273438 423.3652954101562 L 827.7793579101562 423.3652954101562 L 827.7793579101562 192.6601867675781 L 969.7556762695312 192.6601867675781 L 969.7556762695312 230.4216918945312 L 865.4852905273438 230.4216918945312 L 865.4852905273438 423.3652954101562 Z"/>
          </g>
          <g id="Path_3-3" data-name="Path 3" class="cls-5">
            <path class="cls-6" d="M 864.4852905273438 422.3652954101562 L 828.7793579101562 422.3652954101562 L 828.7793579101562 193.6602020263672 L 968.7556762695312 193.6602020263672 L 968.7556762695312 229.4216918945312 L 865.4852905273438 229.4216918945312 L 864.4852905273438 229.4216918945312 L 864.4852905273438 230.4216918945312 L 864.4852905273438 422.3652954101562 Z"/>
            <path class="cls-7" d="M 863.4852905273438 421.3652954101562 L 863.4852905273438 230.4216918945312 C 863.4852905273438 229.317138671875 864.3807373046875 228.4216918945312 865.4852905273438 228.4216918945312 L 967.7556762695312 228.4216918945312 L 967.7556762695312 194.6601867675781 L 829.7793579101562 194.6601867675781 L 829.7793579101562 421.3652954101562 L 863.4852905273438 421.3652954101562 M 865.4852905273438 423.3652954101562 L 827.7793579101562 423.3652954101562 L 827.7793579101562 192.6601867675781 L 969.7556762695312 192.6601867675781 L 969.7556762695312 230.4216918945312 L 865.4852905273438 230.4216918945312 L 865.4852905273438 423.3652954101562 Z"/>
          </g>
          <g id="Path_4-3" data-name="Path 4" class="cls-5">
            <path class="cls-6" d="M 864.4852905273438 422.3652954101562 L 828.7793579101562 422.3652954101562 L 828.7793579101562 193.6602020263672 L 968.7556762695312 193.6602020263672 L 968.7556762695312 229.4216918945312 L 865.4852905273438 229.4216918945312 L 864.4852905273438 229.4216918945312 L 864.4852905273438 230.4216918945312 L 864.4852905273438 422.3652954101562 Z"/>
            <path class="cls-7" d="M 863.4852905273438 421.3652954101562 L 863.4852905273438 230.4216918945312 C 863.4852905273438 229.317138671875 864.3807373046875 228.4216918945312 865.4852905273438 228.4216918945312 L 967.7556762695312 228.4216918945312 L 967.7556762695312 194.6601867675781 L 829.7793579101562 194.6601867675781 L 829.7793579101562 421.3652954101562 L 863.4852905273438 421.3652954101562 M 865.4852905273438 423.3652954101562 L 827.7793579101562 423.3652954101562 L 827.7793579101562 192.6601867675781 L 969.7556762695312 192.6601867675781 L 969.7556762695312 230.4216918945312 L 865.4852905273438 230.4216918945312 L 865.4852905273438 423.3652954101562 Z"/>
          </g>
        </g>
      </g>
      <g id="Group_22-2" data-name="Group 22" transform="translate(293)">
        <path id="Path_19-4" data-name="Path 19" class="cls-4" d="M3064.6,1701.214l.008-16.8,31.6-11.5-.067,28.3Z" transform="translate(2808.175 -1801.629) rotate(110)"/>
        <path id="Path_24-4" data-name="Path 24" class="cls-4" d="M-.385.231l.61,33.552,31.2-11.977L31.163,0Z" transform="translate(263.919 534.033) rotate(111)"/>
        <g id="Group_3-4" data-name="Group 3" class="cls-2" transform="translate(-642 232)">
          <g id="Path_1-4" data-name="Path 1" class="cls-5">
            <path class="cls-6" d="M 864.4852905273438 422.3652954101562 L 828.7793579101562 422.3652954101562 L 828.7793579101562 193.6602020263672 L 968.7556762695312 193.6602020263672 L 968.7556762695312 229.4216918945312 L 865.4852905273438 229.4216918945312 L 864.4852905273438 229.4216918945312 L 864.4852905273438 230.4216918945312 L 864.4852905273438 422.3652954101562 Z"/>
            <path class="cls-7" d="M 863.4852905273438 421.3652954101562 L 863.4852905273438 230.4216918945312 C 863.4852905273438 229.317138671875 864.3807373046875 228.4216918945312 865.4852905273438 228.4216918945312 L 967.7556762695312 228.4216918945312 L 967.7556762695312 194.6601867675781 L 829.7793579101562 194.6601867675781 L 829.7793579101562 421.3652954101562 L 863.4852905273438 421.3652954101562 M 865.4852905273438 423.3652954101562 L 827.7793579101562 423.3652954101562 L 827.7793579101562 192.6601867675781 L 969.7556762695312 192.6601867675781 L 969.7556762695312 230.4216918945312 L 865.4852905273438 230.4216918945312 L 865.4852905273438 423.3652954101562 Z"/>
          </g>
          <g id="Path_3-4" data-name="Path 3" class="cls-5">
            <path class="cls-6" d="M 864.4852905273438 422.3652954101562 L 828.7793579101562 422.3652954101562 L 828.7793579101562 193.6602020263672 L 968.7556762695312 193.6602020263672 L 968.7556762695312 229.4216918945312 L 865.4852905273438 229.4216918945312 L 864.4852905273438 229.4216918945312 L 864.4852905273438 230.4216918945312 L 864.4852905273438 422.3652954101562 Z"/>
            <path class="cls-7" d="M 863.4852905273438 421.3652954101562 L 863.4852905273438 230.4216918945312 C 863.4852905273438 229.317138671875 864.3807373046875 228.4216918945312 865.4852905273438 228.4216918945312 L 967.7556762695312 228.4216918945312 L 967.7556762695312 194.6601867675781 L 829.7793579101562 194.6601867675781 L 829.7793579101562 421.3652954101562 L 863.4852905273438 421.3652954101562 M 865.4852905273438 423.3652954101562 L 827.7793579101562 423.3652954101562 L 827.7793579101562 192.6601867675781 L 969.7556762695312 192.6601867675781 L 969.7556762695312 230.4216918945312 L 865.4852905273438 230.4216918945312 L 865.4852905273438 423.3652954101562 Z"/>
          </g>
          <g id="Path_4-4" data-name="Path 4" class="cls-5">
            <path class="cls-6" d="M 864.4852905273438 422.3652954101562 L 828.7793579101562 422.3652954101562 L 828.7793579101562 193.6602020263672 L 968.7556762695312 193.6602020263672 L 968.7556762695312 229.4216918945312 L 865.4852905273438 229.4216918945312 L 864.4852905273438 229.4216918945312 L 864.4852905273438 230.4216918945312 L 864.4852905273438 422.3652954101562 Z"/>
            <path class="cls-7" d="M 863.4852905273438 421.3652954101562 L 863.4852905273438 230.4216918945312 C 863.4852905273438 229.317138671875 864.3807373046875 228.4216918945312 865.4852905273438 228.4216918945312 L 967.7556762695312 228.4216918945312 L 967.7556762695312 194.6601867675781 L 829.7793579101562 194.6601867675781 L 829.7793579101562 421.3652954101562 L 863.4852905273438 421.3652954101562 M 865.4852905273438 423.3652954101562 L 827.7793579101562 423.3652954101562 L 827.7793579101562 192.6601867675781 L 969.7556762695312 192.6601867675781 L 969.7556762695312 230.4216918945312 L 865.4852905273438 230.4216918945312 L 865.4852905273438 423.3652954101562 Z"/>
          </g>
        </g>
      </g>
      <g id="Path_8-2" data-name="Path 8" class="cls-5" transform="translate(-461 232)">
        <path class="cls-6" d="M 864.4852905273438 422.3652954101562 L 828.7793579101562 422.3652954101562 L 828.7793579101562 193.6602020263672 L 864.4852905273438 193.6602020263672 L 864.4852905273438 230.4216918945312 L 864.4852905273438 422.3652954101562 Z"/>
        <path class="cls-7" d="M 863.4852905273438 421.3652954101562 L 863.4852905273438 230.4216918945312 L 863.4852905273438 194.6601867675781 L 829.7793579101562 194.6601867675781 L 829.7793579101562 421.3652954101562 L 863.4852905273438 421.3652954101562 M 865.4852905273438 423.3652954101562 L 827.7793579101562 423.3652954101562 L 827.7793579101562 192.6601867675781 L 865.4852905273438 192.6601867675781 L 865.4852905273438 230.4216918945312 L 865.4852905273438 423.3652954101562 Z"/>
      </g>
    </g>
  </g>
</svg>
